<svg xmlns="http://www.w3.org/2000/svg" viewBox="0 0 224.91 227.1"><defs><style>.cls-1{fill:#059991;}.cls-2{fill:#004870;}.cls-3{fill:#49c1bf;}.cls-4{fill:#00aeef;}</style></defs><title>Asset 3</title><g id="Layer_2" data-name="Layer 2"><g id="Layer_1-2" data-name="Layer 1"><path class="cls-1" d="M224.91,0V113.24A113.87,113.87,0,0,1,12,169.37a180.31,180.31,0,0,0,53.69,1.81A180.13,180.13,0,0,0,224.91,0"/><path class="cls-2" d="M224.91,0A180.15,180.15,0,0,1,47,152.28,180.05,180.05,0,0,1,5,147.37a113.75,113.75,0,0,1-5-33.51V0Z"/><path class="cls-3" d="M65.66,171.18A180.31,180.31,0,0,1,12,169.37a113.89,113.89,0,0,0,201.12-5.57,222.94,222.94,0,0,1-78.33-15.36,179.51,179.51,0,0,1-69.1,22.74"/><path class="cls-4" d="M4,0H0V113.86a113.75,113.75,0,0,0,5,33.51A180.05,180.05,0,0,0,47,152.28a179.53,179.53,0,0,0,68.37-13.44A224,224,0,0,1,3.68,0"/></g></g></svg>